<svg xmlns="http://www.w3.org/2000/svg" viewBox="0 0 1024 1024" width="1024" height="1024" role="img" aria-label="Polyglot">
  <!-- Header mark: rounded-square indigo tile, light strands. Self-contained tile so it
       reads on either a light or dark nav bar. -->
  <defs>
    <clipPath id="hfield"><rect x="0" y="0" width="1024" height="1024" rx="228" ry="228"/></clipPath>
  </defs>
  <g clip-path="url(#hfield)">
    <rect x="0" y="0" width="1024" height="1024" fill="#2D2A6E"/>
    <g fill="none" stroke-width="78" stroke-linecap="round">
      <path d="M512 250 C 300 330, 300 430, 512 512 C 724 594, 724 694, 512 774" stroke="#FBF7F0"/>
      <path d="M512 250 C 724 330, 724 430, 512 512 C 300 594, 300 694, 512 774" stroke="#2D2A6E" stroke-width="120"/>
      <path d="M512 250 C 724 330, 724 430, 512 512 C 300 594, 300 694, 512 774" stroke="#36C5C0"/>
      <path d="M512 512 C 724 594, 724 694, 512 774" stroke="#2D2A6E" stroke-width="120"/>
      <path d="M512 512 C 724 594, 724 694, 512 774" stroke="#FBF7F0"/>
      <path d="M512 250 C 470 400, 554 600, 512 774" stroke="#2D2A6E" stroke-width="120"/>
      <path d="M512 250 C 470 400, 554 600, 512 774" stroke="#FF6F61"/>
    </g>
  </g>
</svg>
